<svg width="319" height="97" viewBox="0 0 319 97" fill="none" xmlns="http://www.w3.org/2000/svg">
<path d="M47.5477 37.6451C48.3284 35.9851 49.3451 34.6756 50.6159 33.7165C51.8867 32.7574 53.4118 32.2778 55.2091 32.2778C56.4073 32.2778 57.5511 32.4807 58.6585 32.8865C59.766 33.2923 60.7282 33.9194 61.5452 34.7678C62.4166 35.4503 63.0702 36.2065 63.5422 37.0549C64.0142 37.9034 64.3773 38.8809 64.6315 39.9691C64.9038 41.0758 65.1217 42.3853 65.2851 43.9531H66.4288C66.4288 40.836 66.4288 38.346 66.4833 36.4831C66.5196 34.6018 66.5741 33.0156 66.6285 31.6876H65.4848C65.3577 33.1447 65.1035 34.0669 64.7586 34.4543C64.4136 34.8416 63.9053 34.7863 63.2336 34.2698C62.1443 33.3845 60.8734 32.6283 59.4573 31.9643C58.0413 31.3003 56.2439 30.9683 54.0472 30.9683C50.5796 30.9683 47.5296 31.7614 44.8971 33.3476C42.2465 34.9338 40.1768 37.1471 38.6518 39.9876C37.145 42.828 36.3824 46.1296 36.3824 49.9291C36.3824 53.7287 37.1086 57.0855 38.5792 59.8153C40.0497 62.5451 42.1012 64.6477 44.7337 66.1049C47.3843 67.562 50.4707 68.2813 53.9927 68.2813C56.1531 68.2813 57.9323 67.9493 59.3121 67.2853C60.6919 66.6213 61.999 65.8651 63.2336 64.9797C63.9598 64.5002 64.4863 64.4633 64.813 64.8322C65.1217 65.2011 65.3577 66.1233 65.4848 67.562H66.6285C66.5559 66.2155 66.5196 64.5371 66.4833 62.5635C66.447 60.59 66.4288 57.9893 66.4288 54.78H65.2851C65.0491 57.2884 64.7041 59.2804 64.2321 60.7929C63.7601 62.3053 62.8886 63.5595 61.5815 64.574C60.7826 65.3855 59.8204 65.9942 58.713 66.4184C57.6055 66.8426 56.4981 67.0455 55.3906 67.0455C53.6296 67.0455 52.1046 66.566 50.7974 65.6253C49.5084 64.6846 48.4373 63.3935 47.6385 61.7704C46.8215 60.1473 46.2224 58.3029 45.8412 56.2186C45.4599 54.1344 45.2602 51.9764 45.2602 49.7078C45.2602 47.4391 45.4417 45.318 45.8048 43.2522C46.1679 41.168 46.7489 39.3051 47.5296 37.6451H47.5477Z" fill="white"/>
<path d="M102.394 63.3015L90.2662 31.5771C89.7397 31.614 89.1587 31.6325 88.5415 31.6325C87.9242 31.6325 87.3432 31.6325 86.8167 31.5771L75.4336 61.2358C74.7437 63.0986 74.0175 64.4082 73.2913 65.1829C72.5651 65.9575 71.8389 66.4186 71.149 66.5477V67.5622C71.6392 67.4884 72.2202 67.4515 72.8738 67.4331C73.5273 67.4331 74.2172 67.4146 74.9434 67.4146C75.9783 67.4146 76.9949 67.4146 77.9935 67.4331C78.992 67.4331 80.045 67.4884 81.1343 67.5622V66.5477C79.8089 66.474 78.7378 66.2157 77.939 65.7546C77.1402 65.2935 76.7408 64.4266 76.7226 63.1355C76.7226 61.8444 77.1583 59.9631 78.1024 57.4546L79.4277 53.9502H90.2843L93.2799 62.2686C93.9516 63.984 94.0606 65.1091 93.6067 65.644C93.1528 66.1604 92.0817 66.4555 90.3933 66.5293V67.5437C91.1921 67.47 92.2632 67.4331 93.643 67.4146C95.0046 67.4146 96.457 67.3962 97.982 67.3962C99.3436 67.3962 100.705 67.3962 102.049 67.4146C103.392 67.4146 104.572 67.47 105.571 67.5437V66.5293C105.099 66.4924 104.572 66.2526 103.991 65.7915C103.41 65.3304 102.884 64.5004 102.412 63.2831L102.394 63.3015ZM79.7908 52.9542L84.9649 39.25L89.9031 52.9542H79.7908Z" fill="white"/>
<path d="M133.584 50.427C131.75 49.5232 129.281 48.933 126.14 48.7117V48.6195C128.464 48.1768 130.37 47.4944 131.823 46.5352C133.293 45.5946 134.364 44.5064 135.072 43.289C135.762 42.0717 136.125 40.8728 136.125 39.6924C136.125 37.3684 135.109 35.4502 133.057 33.9562C131.006 32.4622 127.919 31.7244 123.798 31.7244C123.163 31.7244 122.11 31.7244 120.603 31.7797C119.114 31.8166 117.553 31.8351 115.955 31.8351C114.557 31.8351 113.16 31.8351 111.743 31.7797C110.327 31.7428 109.202 31.7059 108.385 31.6875V32.7019C109.42 32.7388 110.2 32.8679 110.745 33.0893C111.29 33.3106 111.653 33.7164 111.852 34.3066C112.034 34.8968 112.125 35.819 112.125 37.0733V62.213C112.125 63.4303 112.034 64.3341 111.852 64.9428C111.671 65.5514 111.308 65.9572 110.781 66.1601C110.255 66.363 109.456 66.4921 108.385 66.5659V67.5803C109.22 67.5065 110.345 67.4696 111.743 67.4512C113.16 67.4512 114.594 67.4328 116.064 67.4328C118.152 67.4328 119.968 67.4512 121.474 67.5065C122.981 67.5619 124.143 67.5803 124.942 67.5803C129.227 67.5803 132.603 66.7319 135.054 65.0534C137.505 63.3565 138.722 60.9219 138.722 57.7494C138.722 56.3661 138.322 55.0381 137.523 53.747C136.725 52.4559 135.417 51.3677 133.584 50.4455V50.427ZM120.639 33.5504C121.021 32.9786 121.856 32.6835 123.163 32.6835C124.888 32.6835 126.14 33.3106 126.903 34.5833C127.665 35.8559 128.047 37.7373 128.047 40.2273C128.047 41.6844 127.883 43.0493 127.556 44.3035C127.23 45.5761 126.649 46.5906 125.813 47.3468C124.978 48.103 123.78 48.4904 122.219 48.4904H120.077V37.0364C120.077 35.2842 120.258 34.1222 120.657 33.5319L120.639 33.5504ZM128.773 64.0943C127.665 65.6252 125.904 66.3999 123.508 66.3999C122.074 66.3999 121.148 66.1416 120.712 65.6068C120.276 65.0903 120.058 63.9468 120.058 62.1761V49.3572H122.146C125.105 49.3572 127.23 50.0581 128.5 51.4783C129.771 52.8986 130.425 54.909 130.425 57.5097C130.425 60.3501 129.862 62.545 128.755 64.0759L128.773 64.0943Z" fill="white"/>
<path d="M172.508 63.3015L160.381 31.5771C159.854 31.614 159.273 31.6325 158.656 31.6325C158.039 31.6325 157.458 31.6325 156.931 31.5771L145.548 61.2358C144.858 63.0986 144.132 64.4082 143.406 65.1829C142.68 65.9575 141.953 66.4186 141.263 66.5477V67.5622C141.754 67.4884 142.335 67.4515 142.988 67.4331C143.642 67.4331 144.332 67.4146 145.058 67.4146C146.093 67.4146 147.109 67.4146 148.108 67.4331C149.106 67.4331 150.159 67.4884 151.249 67.5622V66.5477C149.923 66.474 148.852 66.2157 148.053 65.7546C147.255 65.2935 146.855 64.4266 146.837 63.1355C146.837 61.8444 147.273 59.9631 148.217 57.4546L149.542 53.9502H160.399L163.394 62.2686C164.066 63.984 164.175 65.1091 163.721 65.644C163.267 66.1789 162.196 66.4555 160.508 66.5293V67.5437C161.306 67.47 162.378 67.4331 163.757 67.4146C165.119 67.4146 166.571 67.3962 168.096 67.3962C169.458 67.3962 170.82 67.3962 172.163 67.4146C173.507 67.4146 174.687 67.47 175.685 67.5437V66.5293C175.213 66.4924 174.687 66.2526 174.106 65.7915C173.525 65.3304 172.998 64.5004 172.526 63.2831L172.508 63.3015ZM149.905 52.9542L155.079 39.25L160.017 52.9542H149.905Z" fill="white"/>
<path d="M210.706 65.5514C210.415 65.7359 210.071 65.8465 209.635 65.8834C208.999 65.8834 208.527 65.6068 208.182 65.0719C207.856 64.537 207.529 63.5779 207.238 62.2314L206.095 57.0117C205.659 54.909 204.715 53.3412 203.281 52.2899C201.828 51.2386 199.613 50.593 196.6 50.3163C197.907 50.1688 199.087 49.9475 200.122 49.6339C202.046 49.0437 203.571 48.2506 204.679 47.2546C205.786 46.2586 206.585 45.1704 207.057 44.0084C207.529 42.8464 207.747 41.6844 207.747 40.5408C207.747 37.7373 206.603 35.5608 204.297 34.0299C202.01 32.4991 198.542 31.7244 193.913 31.7244C193.277 31.7244 192.224 31.7244 190.717 31.7797C189.229 31.8166 187.667 31.8351 186.07 31.8351C184.672 31.8351 183.274 31.8351 181.858 31.7797C180.442 31.7428 179.316 31.7059 178.499 31.6875V32.7019C179.534 32.7388 180.315 32.8679 180.859 33.0893C181.404 33.3106 181.767 33.7164 181.967 34.3066C182.148 34.8968 182.239 35.819 182.239 37.0733V62.213C182.239 63.4303 182.148 64.3341 181.967 64.9428C181.785 65.5514 181.422 65.9572 180.896 66.1601C180.369 66.363 179.57 66.4921 178.499 66.5659V67.5803C179.334 67.5065 180.46 67.4696 181.858 67.4512C183.274 67.4512 184.781 67.4328 186.378 67.4328C187.776 67.4328 189.156 67.4328 190.518 67.4512C191.879 67.4512 193.005 67.5065 193.913 67.5803V66.5659C192.842 66.4921 192.043 66.363 191.516 66.1601C190.99 65.9572 190.627 65.5514 190.445 64.9428C190.264 64.3341 190.173 63.4303 190.173 62.213V50.5561H193.422C194.457 50.5561 195.256 50.8697 195.837 51.4968C196.418 52.1239 196.872 52.9723 197.217 54.0237C197.544 55.0935 197.834 56.3292 198.07 57.7494L198.96 62.8217C199.323 64.9243 200.085 66.3445 201.247 67.1376C202.409 67.9123 203.898 68.2996 205.695 68.2996C207.166 68.2996 208.4 68.0783 209.435 67.6172C210.47 67.1561 211.432 66.4183 212.322 65.367L211.632 64.7583C211.305 65.1272 210.996 65.4039 210.706 65.5883V65.5514ZM190.754 33.5319C191.135 32.9602 191.97 32.6651 193.277 32.6651C195.547 32.6651 197.126 33.4028 198.07 34.8784C198.996 36.3539 199.468 38.4197 199.468 41.0941C199.468 42.6435 199.268 44.0637 198.887 45.3179C198.506 46.5906 197.798 47.605 196.781 48.3612C195.764 49.1175 194.276 49.5048 192.315 49.5048H190.173V37.0364C190.173 35.2842 190.354 34.1222 190.754 33.5319Z" fill="white"/>
<path d="M242.858 59.8524C242.858 58.1002 242.913 56.6799 243.004 55.5917H241.86C241.424 58.303 240.807 60.4426 239.99 62.0288C239.173 63.615 238.192 64.7401 237.049 65.4041C235.905 66.0681 234.58 66.4001 233.073 66.4001H230.622C229.623 66.4001 228.879 66.3079 228.407 66.1419C227.917 65.9759 227.608 65.6439 227.427 65.1275C227.263 64.6295 227.172 63.8364 227.172 62.8035V50.0215H228.77C230.095 50.0215 231.185 50.3351 232.02 50.9622C232.855 51.5893 233.49 52.4008 233.944 53.4153C234.398 54.4297 234.707 55.5364 234.87 56.7168H236.014C235.887 54.7986 235.796 53.3231 235.76 52.3086C235.723 51.2942 235.705 50.372 235.705 49.5235C235.705 48.6751 235.705 47.7528 235.687 46.7384C235.687 45.724 235.723 44.2484 235.869 42.3302H234.725C234.561 43.234 234.253 44.2115 233.835 45.2444C233.4 46.2773 232.782 47.1626 231.984 47.9004C231.185 48.6382 230.114 49.0071 228.788 49.0071H227.191V36.428C227.191 35.3398 227.263 34.5651 227.445 34.0671C227.608 33.5691 227.935 33.2555 228.425 33.0711C228.915 32.9051 229.642 32.8129 230.64 32.8129H232.692C234.18 32.8129 235.487 33.108 236.613 33.6982C237.72 34.2884 238.628 35.3029 239.336 36.7415C240.026 38.1802 240.553 40.1353 240.879 42.5884H242.023C241.987 42.1826 241.951 41.6846 241.932 41.076C241.896 40.4673 241.878 39.8217 241.878 39.1578C241.878 38.42 241.896 37.3502 241.951 35.9669C242.005 34.5835 242.096 33.1449 242.223 31.6509C240.698 31.7247 238.955 31.7615 237.012 31.78C235.07 31.78 233.327 31.7984 231.802 31.7984H227.318C225.448 31.7984 223.469 31.7984 221.381 31.7431C219.293 31.7062 217.332 31.6693 215.535 31.6509V32.6653C216.57 32.7022 217.351 32.8313 217.895 33.0527C218.44 33.274 218.803 33.6798 219.003 34.27C219.184 34.8602 219.275 35.7824 219.275 37.0366V62.1764C219.275 63.3937 219.184 64.2975 219.003 64.9061C218.821 65.5148 218.458 65.9206 217.932 66.1235C217.405 66.3264 216.606 66.4555 215.535 66.5292V67.5437C217.332 67.4699 219.275 67.433 221.381 67.4146C223.469 67.4146 225.448 67.3961 227.318 67.3961H231.802C233.472 67.3961 235.36 67.3961 237.484 67.4146C239.609 67.4146 241.533 67.4699 243.221 67.5437C243.058 66.0312 242.949 64.5557 242.931 63.1355C242.895 61.7153 242.876 60.6086 242.876 59.8339L242.858 59.8524Z" fill="white"/>
<path d="M279.622 40.2825C279.622 39.434 279.64 38.2167 279.695 36.6305C279.749 35.0443 279.84 33.3843 279.967 31.6689C278.496 31.7058 276.862 31.7427 275.029 31.7612C273.195 31.7981 271.38 31.8165 269.564 31.8165H259.652C257.818 31.8165 256.002 31.8165 254.187 31.7612C252.371 31.7243 250.701 31.6874 249.176 31.6689C249.303 33.3843 249.394 35.0443 249.448 36.6305C249.503 38.2167 249.521 39.434 249.521 40.2825C249.521 41.0203 249.521 41.7396 249.503 42.4036C249.503 43.086 249.448 43.6578 249.376 44.1189H250.52C251.119 41.2416 251.827 38.9914 252.607 37.3498C253.406 35.7083 254.368 34.5463 255.494 33.8454C256.62 33.1445 257.963 32.8125 259.488 32.8125H260.596V61.7518C260.596 63.0982 260.469 64.1127 260.196 64.7951C259.924 65.4775 259.416 65.9202 258.653 66.1415C257.891 66.3629 256.765 66.492 255.258 66.5289V67.5433C256.257 67.5064 257.564 67.4695 259.198 67.4511C260.832 67.4142 262.556 67.3958 264.39 67.3958C266.224 67.3958 268.039 67.3958 269.746 67.4511C271.452 67.488 272.832 67.5249 273.867 67.5433V66.5289C272.396 66.492 271.289 66.3629 270.526 66.1415C269.764 65.9202 269.237 65.4775 268.947 64.7951C268.656 64.1127 268.529 63.0982 268.529 61.7518V32.8125H269.673C271.198 32.8125 272.542 33.1629 273.667 33.8454C274.793 34.5463 275.773 35.7083 276.59 37.3683C277.407 39.0283 278.079 41.2785 278.605 44.1189H279.749C279.713 43.6394 279.676 43.0676 279.658 42.4036C279.622 41.7211 279.604 41.0203 279.604 40.2825H279.622Z" fill="white"/>
<path d="M83.1132 23.2955C84.3114 23.2955 84.965 22.5024 84.965 21.4327V16.7847H85.8364V21.4327C85.8364 23.0373 84.729 24.1624 83.095 24.1624C81.4611 24.1624 80.3536 23.0373 80.3536 21.4327V16.7847H81.2251V21.4327C81.2251 22.5024 81.8968 23.2955 83.095 23.2955H83.1132Z" fill="white"/>
<path d="M93.9699 24.0333H89.4312V16.7847H90.3026V23.1664H93.9699V24.0149V24.0333Z" fill="white"/>
<path d="M99.5615 17.6331V24.0333H98.6901V17.6331H96.457V16.7847H101.813V17.6331H99.5797H99.5615Z" fill="white"/>
<path d="M110.255 24.0333H109.365C109.293 23.8304 109.238 23.5907 109.238 23.2587V22.2627C109.238 21.5618 108.875 21.1744 108.058 21.1744H105.716V24.0333H104.845V16.7847H108.004C109.456 16.7847 110.309 17.6884 110.309 18.9796C110.309 19.7542 109.946 20.3813 109.329 20.7318C109.819 21.0269 110.073 21.5249 110.073 22.2627V23.1664C110.073 23.4431 110.146 23.8304 110.218 24.0518L110.255 24.0333ZM108.04 20.3075C108.875 20.3075 109.438 19.7911 109.438 18.9796C109.438 18.0389 108.875 17.6331 108.004 17.6331H105.716V20.326H108.022L108.04 20.3075Z" fill="white"/>
<path d="M114.685 21.9121L113.922 24.0148H112.978L115.665 16.7661H116.645L119.296 24.0148H118.316L117.571 21.9121H114.685ZM116.137 17.8543L114.975 21.0821H117.281L116.137 17.8543Z" fill="white"/>
<path d="M130.407 24.0333H127.32V16.7847H130.389C131.659 16.7847 132.44 17.5593 132.44 18.7398C132.44 19.2747 132.168 19.8833 131.551 20.2153C132.313 20.492 132.64 21.1744 132.64 21.9122C132.64 23.1111 131.787 24.0333 130.425 24.0333H130.407ZM128.192 19.828H130.425C130.951 19.828 131.569 19.5329 131.569 18.7398C131.569 17.9467 131.115 17.6516 130.389 17.6516H128.192V19.8464V19.828ZM130.425 20.6764H128.192V23.1849H130.461C131.224 23.1849 131.768 22.7238 131.768 21.9307C131.768 21.0269 131.224 20.6764 130.425 20.6764Z" fill="white"/>
<path d="M140.483 24.0333H135.944V16.7847H136.815V23.1664H140.483V24.0149V24.0333Z" fill="white"/>
<path d="M144.549 21.9121L143.787 24.0148H142.843L145.53 16.7661H146.51L149.161 24.0148H148.18L147.436 21.9121H144.549ZM146.002 17.8543L144.84 21.0821H147.146L146.002 17.8543Z" fill="white"/>
<path d="M155.225 24.1439C153.264 24.1439 151.684 22.447 151.684 20.3628C151.684 18.2785 153.264 16.6001 155.225 16.6001C156.84 16.6001 158.039 17.5777 158.492 19.0163H157.585C157.203 18.1125 156.386 17.4485 155.225 17.4485C153.754 17.4485 152.556 18.7765 152.556 20.3628C152.556 21.949 153.754 23.277 155.225 23.277C156.278 23.277 157.149 22.6683 157.585 21.7092H158.492C158.002 23.1848 156.75 24.1254 155.225 24.1254V24.1439Z" fill="white"/>
<path d="M162.486 21.4695V24.0333H161.615V16.7847H162.486V20.326L166.081 16.7847H167.297L164.338 19.662L167.425 24.0333H166.335L163.721 20.2891L162.505 21.488L162.486 21.4695Z" fill="white"/>
<path d="M182.275 24.0333H181.404V17.9651L179.316 24.0333H178.372L176.284 17.9651V24.0333H175.413V16.7847H176.756L178.862 22.8898L180.95 16.7847H182.275V24.0333Z" fill="white"/>
<path d="M186.923 21.9121L186.16 24.0148H185.216L187.903 16.7661H188.884L191.534 24.0148H190.554L189.81 21.9121H186.923ZM188.375 17.8543L187.213 21.0821H189.519L188.375 17.8543Z" fill="white"/>
<path d="M196.69 24.1439C195.038 24.1439 193.967 23.1663 193.967 21.7276H194.875C194.875 22.7052 195.619 23.2954 196.69 23.2954C197.907 23.2954 198.506 22.779 198.506 21.9674C198.506 21.3588 198.233 20.953 196.672 20.6763C195.093 20.3996 194.185 19.9016 194.185 18.6474C194.185 17.3932 195.165 16.6001 196.672 16.6001C198.179 16.6001 199.196 17.4485 199.196 18.8503H198.306C198.306 18.0019 197.743 17.4485 196.672 17.4485C195.601 17.4485 195.056 17.9465 195.056 18.6105C195.056 19.2376 195.383 19.5512 196.836 19.8279C198.397 20.123 199.359 20.5841 199.359 21.9674C199.359 23.3507 198.252 24.1439 196.672 24.1439H196.69Z" fill="white"/>
<path d="M205.768 24.1439C203.807 24.1439 202.228 22.447 202.228 20.3628C202.228 18.2785 203.807 16.6001 205.768 16.6001C207.384 16.6001 208.582 17.5777 209.036 19.0163H208.128C207.747 18.1125 206.93 17.4485 205.768 17.4485C204.297 17.4485 203.099 18.7765 203.099 20.3628C203.099 21.949 204.297 23.277 205.768 23.277C206.821 23.277 207.692 22.6683 208.128 21.7092H209.036C208.545 23.1848 207.293 24.1254 205.768 24.1254V24.1439Z" fill="white"/>
<path d="M213.121 21.9121L212.358 24.0148H211.414L214.101 16.7661H215.081L217.732 24.0148H216.751L216.007 21.9121H213.121ZM214.573 17.8543L213.411 21.0821H215.717L214.573 17.8543Z" fill="white"/>
<path d="M226.065 24.0333H225.175C225.103 23.8304 225.048 23.5907 225.048 23.2587V22.2627C225.048 21.5618 224.685 21.1744 223.868 21.1744H221.526V24.0333H220.655V16.7847H223.814C225.266 16.7847 226.119 17.6884 226.119 18.9796C226.119 19.7542 225.756 20.3813 225.139 20.7318C225.629 21.0269 225.883 21.5249 225.883 22.2627V23.1664C225.883 23.4431 225.956 23.8304 226.029 24.0518L226.065 24.0333ZM223.85 20.3075C224.685 20.3075 225.248 19.7911 225.248 18.9796C225.248 18.0389 224.685 17.6331 223.814 17.6331H221.526V20.326H223.832L223.85 20.3075Z" fill="white"/>
<path d="M230.477 21.9121L229.714 24.0148H228.77L231.457 16.7661H232.437L235.088 24.0148H234.108L233.363 21.9121H230.477ZM231.929 17.8543L230.767 21.0821H233.073L231.929 17.8543Z" fill="white"/>
<path d="M106.987 74.4601C107.187 74.6446 107.441 74.7552 107.677 74.7552C107.695 74.7552 107.731 74.7552 107.749 74.7552C108.349 74.6999 109.093 73.9068 109.093 73.3166C109.093 72.4681 107.731 72.1177 107.169 72.1177C106.787 72.1177 106.606 72.2652 106.515 72.3943C106.424 72.5235 106.352 72.7632 106.479 73.1506C106.479 73.6855 106.678 74.165 106.987 74.4601Z" fill="white"/>
<path d="M122.491 74.7553C121.475 74.7553 118.769 76.6919 118.751 76.7104C118.316 77.0055 117.916 77.3559 117.535 77.7064C117.462 77.7617 117.408 77.817 117.335 77.8908C117.39 77.6695 117.462 77.4481 117.535 77.1899C117.716 76.7473 117.716 76.3968 117.571 76.1201C117.39 75.8066 117.008 75.6037 116.373 75.5115L116.173 75.4746L115.883 76.7473C115.81 77.0793 115.738 77.4297 115.647 77.7617C115.647 77.7617 115.61 77.7617 115.592 77.7617C115.429 77.7617 115.229 77.817 115.138 77.8539C113.014 78.5548 106.787 80.5284 105.952 80.5284C105.898 80.5284 105.807 80.5284 105.771 80.473C105.771 80.4546 105.716 80.3808 105.752 80.1964C105.952 78.8868 106.333 77.3928 107.532 76.2861L107.677 76.157L107.568 75.991C107.241 75.5115 106.805 75.2533 106.351 75.2533C105.462 75.2533 104.754 76.6919 104.3 78.0015C104.264 78.0199 104.209 78.0568 104.191 78.0753C102.248 78.8868 100.215 79.2926 98.1273 79.2926C97.6371 79.2926 97.1651 79.2557 96.7294 79.2372C96.7838 78.9975 96.8565 78.7761 96.9109 78.5548C97.0925 77.9461 97.2559 77.3559 97.3285 76.7657C97.4011 76.1201 97.1469 75.3639 96.6386 74.7368C96.1303 74.1281 95.4767 73.7593 94.8776 73.7408C94.4419 73.7224 93.9335 73.9437 93.5341 74.331C92.9895 74.8475 92.6808 75.6037 92.6808 76.3046C92.6445 76.8764 92.463 77.3375 92.1543 77.7801C91.9002 77.817 91.5552 77.9461 91.3011 78.149C89.8668 79.4032 87.0347 80.805 85.2736 80.805C84.965 80.805 84.729 80.6944 84.5837 80.2148C84.2206 78.813 83.6941 76.6735 81.7334 76.6735C81.3703 76.6735 80.8257 76.7473 80.1721 77.0977C79.7364 77.3375 79.337 77.5957 78.8831 77.8724C78.7742 77.9461 78.6652 78.0015 78.5563 78.0753C78.7197 77.7064 78.8831 77.3928 79.0283 77.0608C79.1373 76.7841 79.1554 76.5259 79.0646 76.323C78.9739 76.1201 78.8105 75.9726 78.5745 75.8988C78.3929 75.8066 78.1932 75.7513 78.048 75.7513C77.8483 75.7513 77.5759 75.8435 77.3762 76.2308C77.0131 76.9501 76.6682 77.651 76.3051 78.3519C75.9602 79.0344 75.6334 79.6984 75.2884 80.3992C75.0161 80.971 75.1432 81.4506 75.6697 81.8564C75.9965 82.0777 76.2506 82.1699 76.4685 82.1699C76.759 82.1699 77.0131 81.9855 77.2128 81.8195C77.9935 81.0264 81.4793 78.0937 82.0602 78.0937C82.0965 78.0937 82.2236 78.0937 82.3507 78.481C82.6412 79.6984 83.2221 82.2252 85.6367 82.2252C87.5248 82.2252 89.7397 81.2477 91.41 80.0672C91.41 80.9157 91.8639 81.4506 92.3177 81.7826C92.6082 82.0039 92.9532 82.1146 93.3526 82.1146C94.0243 82.1146 94.7505 81.7457 95.3496 81.1001C95.7309 80.6021 96.0576 80.3808 96.5115 80.3808C96.6386 80.3808 96.8202 80.4177 97.0562 80.4915C97.2559 80.5284 97.5645 80.5837 97.8368 80.5837C100.124 80.5837 102.158 80.2332 103.919 79.5692C103.882 80.1226 104.009 80.6575 104.336 81.0817C104.772 81.6535 105.462 81.9855 106.224 81.9855C107.187 81.9855 108.167 81.7088 108.657 81.5428C110.908 80.8235 113.16 80.0488 115.338 79.311C115.102 80.307 114.884 81.2846 114.666 82.2806C114.612 82.6864 115.048 83.2581 115.411 83.4057C115.556 83.4795 115.629 83.5163 115.719 83.5163C116.064 83.5163 116.21 83.1475 116.337 82.8892C116.355 82.8339 116.373 82.797 116.409 82.7417C117.154 81.0264 118.08 79.2741 119.695 78.0199C119.822 77.9092 119.95 77.817 120.077 77.7064C121.057 76.9133 121.983 76.157 123.29 76.157H123.944L123.817 75.8435C123.635 75.3824 123.308 74.7737 122.546 74.7737L122.491 74.7553ZM94.5689 79.7168C94.4237 79.8275 94.2603 79.9381 94.1151 80.0488C93.7883 80.307 93.4615 80.5468 93.1529 80.7128H93.0802C92.8987 80.805 92.8261 80.7681 92.8079 80.7497C92.7535 80.6944 92.7534 80.5652 92.7716 80.4361C92.8805 79.975 93.0258 79.5139 93.1892 79.0344C93.2436 78.9052 93.2799 78.7577 93.3344 78.6101L93.5341 78.7946C93.8791 79.1081 94.2058 79.3848 94.5508 79.6984L94.5689 79.7168ZM94.2422 77.6695C94.2422 77.6695 94.2603 77.3744 94.2785 77.2084C94.3511 76.6919 94.3692 76.323 94.2785 76.0833C94.4237 75.8435 94.5508 75.6221 94.6779 75.4561C94.932 75.1979 95.1136 75.0873 95.2588 75.0873C95.3496 75.0873 95.6401 75.0873 95.8761 75.659C96.0758 76.1755 95.6038 78.2597 95.1862 78.6101C95.1862 78.6101 95.1499 78.6286 95.1136 78.647C95.0228 78.5364 94.9139 78.4441 94.805 78.3335C94.5689 78.0937 94.3329 77.8724 94.2058 77.651L94.2422 77.6695Z" fill="white"/>
<path d="M158.148 76.1387L158.02 75.8252C157.839 75.364 157.512 74.7554 156.75 74.7554C155.751 74.7554 153.028 76.692 153.01 76.7105C152.574 77.0056 152.175 77.356 151.793 77.7065C151.721 77.7618 151.666 77.8171 151.594 77.8909C151.648 77.6696 151.703 77.4483 151.793 77.19C151.975 76.7474 151.975 76.3969 151.83 76.1203C151.648 75.8067 151.267 75.6038 150.631 75.5116L150.432 75.4747L150.214 76.4154C150.105 76.8949 149.996 77.3376 149.887 77.7987C149.742 77.8171 149.615 77.8725 149.506 77.9463C149.451 77.9831 149.397 78.02 149.342 78.0385C148.943 78.186 148.562 78.3336 148.162 78.4996C147.091 78.9238 145.984 79.348 144.876 79.6431C144.495 79.7538 144.205 79.7907 143.914 79.7907C143.624 79.7907 143.533 79.7169 143.496 79.6616C143.351 79.4956 143.315 79.0898 143.406 78.4627C143.442 78.1123 143.333 77.7803 143.115 77.5036C142.843 77.19 142.389 77.0056 141.935 77.0056C141.826 77.0056 141.645 76.8949 141.499 76.7474C140.991 76.2309 140.428 75.9543 139.847 75.9543C139.629 75.9543 139.412 75.9911 139.139 76.0834C137.16 76.7474 135.871 78.0385 135.182 80.0305C134.964 80.8051 135.145 81.4507 135.708 81.8934C135.962 82.0594 136.434 82.2622 136.815 82.2622C137.578 82.2622 139.666 80.8789 140.011 80.6207C140.483 80.3071 140.918 79.9567 141.391 79.5694C141.572 79.4034 141.772 79.2558 141.971 79.0898C142.244 80.0489 142.807 81.1187 144.223 81.1187C146.02 81.1187 148.053 80.2702 149.524 79.5325C149.324 80.4362 149.125 81.34 148.925 82.2438C148.87 82.6496 149.306 83.2214 149.669 83.3689C149.796 83.4242 149.887 83.4796 149.978 83.4796C150.323 83.4796 150.468 83.1107 150.595 82.8525C150.613 82.7971 150.631 82.7602 150.668 82.7049C151.412 80.9896 152.338 79.2374 153.954 77.9831C154.081 77.8725 154.208 77.7803 154.353 77.6696C155.333 76.8765 156.259 76.1203 157.567 76.1203H158.22L158.148 76.1387ZM140.664 77.6696C140.664 77.6696 140.646 77.8171 140.628 77.8356C139.412 78.7209 138.159 79.6063 136.979 80.4363C137.505 79.0898 139.049 77.6696 140.21 77.5036C140.356 77.5036 140.501 77.5589 140.664 77.6696Z" fill="white"/>
<path d="M190.972 74.4601C191.171 74.6446 191.425 74.7552 191.661 74.7552C191.68 74.7552 191.716 74.7552 191.734 74.7552C192.333 74.6999 193.078 73.9068 193.078 73.3166C193.078 72.4681 191.716 72.1177 191.153 72.1177C190.772 72.1177 190.59 72.2652 190.5 72.3943C190.409 72.5235 190.336 72.7632 190.463 73.1506C190.463 73.6855 190.663 74.165 190.972 74.4601Z" fill="white"/>
<path d="M248.305 78.0014C248.069 77.8723 247.76 77.7247 247.47 77.7616C246.671 78.0014 245.89 78.2412 245.109 78.4994C243.893 78.8867 242.622 79.2925 241.388 79.606C240.988 79.6983 240.553 79.8089 240.081 79.9196C238.265 80.3623 235.996 80.9156 233.89 80.9156C232.891 80.9156 232.074 80.8049 231.384 80.602C231.203 80.5467 231.021 80.4545 231.112 79.9196C231.185 79.6245 231.275 79.606 231.675 79.606C233.381 79.606 234.797 78.9236 236.286 77.4112C236.94 76.6734 236.794 76.0463 236.54 75.6405C236.159 75.0687 235.705 74.7736 235.179 74.7736C233.418 74.7736 231.384 76.5258 230.513 77.6141C230.458 77.6878 230.404 77.7432 230.331 77.7985C230.295 77.8354 230.259 77.8907 230.204 77.946C229.26 78.1674 228.316 78.4072 227.372 78.6285L224.939 79.2187C224.54 79.2187 224.504 79.1818 224.504 78.8498C224.504 78.2043 224.504 76.6918 223.088 76.6918C222.797 76.6918 222.507 76.8025 222.216 76.9132C221.708 77.2083 221.199 77.5218 220.709 77.8354C220.219 78.1489 219.729 78.444 219.239 78.7392C218.749 79.0158 218.24 79.2925 217.677 79.4954C217.514 79.5692 217.278 79.5507 217.26 79.5323C217.26 79.5323 217.205 79.44 217.314 79.1265C217.732 77.8723 218.149 76.8763 219.202 76.3414L219.42 76.2307L219.311 76.0278C219.003 75.4376 218.621 75.1425 218.168 75.1425C217.804 75.1425 217.514 75.3085 217.242 75.6589C216.697 76.3414 216.261 77.0976 215.916 77.7063C215.717 77.7432 215.517 77.8169 215.335 77.9092C215.208 77.9829 215.081 78.0383 214.954 78.0567C212.721 78.61 210.488 79.1265 208.237 79.6614C207.638 79.772 207.002 79.8458 206.349 79.9196C206.185 79.938 206.004 79.9565 205.84 79.9749C206.095 79.5876 206.349 79.2003 206.585 78.8129C206.839 78.4072 207.093 78.0014 207.365 77.6141C207.856 76.9685 207.583 76.4336 207.22 75.9909C207.093 75.8618 206.966 75.7327 206.748 75.7327C206.512 75.7327 206.312 75.8987 206.113 76.0647L206.004 76.1569C205.786 76.3414 205.532 76.5443 205.259 76.7656C204.824 76.2492 204.243 75.7143 203.408 75.7143C202.264 75.7143 200.92 76.5996 199.867 77.7432C199.777 77.7247 199.704 77.7063 199.631 77.7063C199.468 77.7063 199.286 77.7616 199.178 77.7985C196.636 78.6285 190.772 80.4729 189.991 80.4729C189.937 80.4729 189.846 80.4729 189.81 80.4176C189.81 80.3992 189.755 80.3254 189.791 80.1409C189.991 78.8314 190.372 77.3374 191.571 76.2307L191.716 76.1016L191.607 75.9356C191.28 75.456 190.844 75.1978 190.391 75.1978C189.537 75.1978 188.866 76.5074 188.393 77.78C185.67 78.3334 182.112 79.1818 178.735 80.6574C178.681 80.6574 178.626 80.6758 178.572 80.6943C178.572 80.6943 178.572 80.6943 178.554 80.6943C177.7 78.7945 176.302 78.3518 174.487 79.3847C173.815 79.7536 173.234 80.2332 172.599 80.7312C172.453 80.8418 172.29 80.9709 172.145 81.0816C172.181 80.9709 172.199 80.8787 172.236 80.768C172.326 80.4545 172.417 80.1225 172.49 79.7905C172.599 79.1818 172.889 78.7023 173.379 78.2965C177.355 75.2532 182.275 69.3141 183.655 64.6107C183.964 63.5041 184.091 62.379 183.982 61.4567C183.891 60.387 183.092 59.6123 182.057 59.6123C179.243 59.6123 175.867 66.1047 175.83 66.1785C174.051 69.6092 172.617 73.4641 171.491 77.7985C171.346 77.8169 171.219 77.8723 171.11 77.946C171.056 77.9829 171.001 78.0198 170.947 78.0383C170.547 78.1858 170.148 78.3334 169.767 78.4994C168.695 78.9236 167.606 79.3478 166.481 79.6429C166.099 79.7536 165.809 79.7905 165.518 79.7905C165.228 79.7905 165.137 79.7167 165.101 79.6614C164.955 79.4954 164.919 79.0896 165.01 78.4625C165.046 78.112 164.937 77.78 164.719 77.5034C164.447 77.1898 163.993 77.0054 163.539 77.0054C163.43 77.0054 163.249 76.8947 163.104 76.7472C162.595 76.2307 162.033 75.9541 161.452 75.9541C161.234 75.9541 161.016 75.9909 160.744 76.0832C158.765 76.7472 157.476 78.0383 156.786 80.0303C156.568 80.8049 156.749 81.4505 157.312 81.8932C157.566 82.0592 158.038 82.262 158.42 82.262C159.182 82.262 161.27 80.8787 161.615 80.6205C162.087 80.3069 162.523 79.9565 162.995 79.5692C163.176 79.4032 163.376 79.2556 163.576 79.0896C163.848 80.0487 164.411 81.1185 165.827 81.1185C167.588 81.1185 169.621 80.2885 171.074 79.5692C170.729 81.0447 170.402 82.5571 170.13 84.1434C170.093 84.4569 170.22 84.7705 170.329 85.0471C170.348 85.1025 170.384 85.1763 170.402 85.2316C170.438 85.4529 170.711 85.4529 170.82 85.4529C170.983 85.4529 171.237 85.4529 171.328 85.2685C171.509 84.9734 171.673 84.6598 171.836 84.3463C172.054 83.9036 172.272 83.4978 172.544 83.1289C173.597 81.7087 174.795 80.8049 176.23 80.3254C176.556 80.1963 176.883 80.0118 177.047 80.4914C177.174 81.0447 177.228 81.3767 176.738 81.6718C174.741 82.8891 173.779 83.6638 172.399 85.5636C171.945 86.08 171.981 86.7625 172.472 87.2605C172.744 87.574 173.071 87.74 173.434 87.74C173.706 87.74 173.924 87.6478 174.214 87.5187C176.357 86.3198 177.718 84.7889 178.372 82.8707C178.499 82.4649 178.717 82.2251 179.116 82.0407C181.604 80.8972 184.381 79.9749 188.012 79.108C187.831 79.8274 187.958 80.5283 188.357 81.0816C188.793 81.6534 189.483 81.9854 190.245 81.9854C191.208 81.9854 192.188 81.7087 192.678 81.5427C194.693 80.8972 196.69 80.2332 198.633 79.5692C198.342 80.104 198.143 80.6389 198.106 81.1C198.052 81.6349 198.215 82.1329 198.524 82.4834C198.923 82.926 199.504 83.092 200.194 82.8154C201.102 82.4096 201.864 81.8378 202.681 81.2476L202.917 81.0632C203.299 80.7496 203.644 80.3992 203.989 80.0303C204.025 79.9934 204.043 79.9749 204.079 79.938V79.9749C202.209 84.42 200.358 89.1787 199.994 94.3247C199.904 95.1362 200.303 95.8371 201.047 96.1691C201.12 96.1876 201.338 96.2613 201.519 96.2613C202.137 96.2613 202.554 95.7633 202.808 95.4129C203.081 95.044 203.371 94.6936 203.644 94.3247C204.606 93.1073 205.604 91.8347 206.367 90.4514C208.164 87.0576 208.128 84.1434 206.258 81.4874C206.258 81.4874 206.24 81.4689 206.222 81.4505C206.276 81.4505 206.349 81.4136 206.403 81.3952C206.893 81.3029 207.402 81.2107 207.892 81.1C209.199 80.8418 210.561 80.5836 211.886 80.27C213.084 79.9934 214.264 79.6245 215.426 79.2925L215.68 79.2187C215.735 79.5507 215.88 79.8643 216.134 80.1594C216.643 80.7312 217.223 81.0263 217.804 81.0263C218.64 81.0263 220.038 80.2332 220.328 80.0672L221.308 79.44C221.871 79.0896 222.434 78.7207 223.033 78.3518C223.033 78.3887 223.051 78.4256 223.069 78.4625C223.287 79.8274 223.995 80.4729 225.302 80.4729C225.793 80.4729 226.301 80.3992 226.827 80.3069C227.318 80.1594 227.808 80.0303 228.298 79.8827C228.806 79.7352 229.333 79.5692 229.859 79.4216C229.859 80.8234 230.513 81.7825 231.784 82.1145C232.383 82.2805 233.109 82.3543 233.89 82.3543C236.377 82.3543 239.463 81.5796 241.733 81.0078C242.223 80.8787 242.677 80.768 243.076 80.6758C244.347 80.3807 245.6 79.938 246.798 79.5138C247.215 79.3663 247.633 79.2187 248.069 79.0712C248.287 78.9789 248.414 78.7392 248.523 78.5178C248.541 78.4625 248.577 78.4072 248.595 78.3703L248.722 78.1489L248.395 77.9829L248.305 78.0014ZM232.238 78.2043C232.855 77.3558 234.126 76.618 235.106 76.3967C234.253 77.3189 233.309 77.9092 232.238 78.2043ZM203.625 77.2452L203.662 77.2083C203.825 77.2083 204.025 77.282 204.206 77.3558C204.206 77.3927 204.188 77.4112 204.17 77.4481C204.116 77.6325 204.061 77.7985 203.989 77.8907C202.863 78.9052 201.701 79.9012 200.557 80.8603L200.485 80.9156C200.249 81.1 199.976 81.2291 199.686 81.3767C199.65 81.3767 199.631 81.4136 199.595 81.4136C200.376 79.3109 201.683 77.946 203.589 77.2267H203.625V77.2452ZM205.967 86.7809C205.532 89.1787 203.408 92.6647 201.411 94.3985C201.411 94.1587 201.411 93.9374 201.411 93.7529C202.064 89.6398 203.535 85.6743 205.023 81.9854C206.022 83.3134 206.331 84.8443 205.967 86.7994V86.7809ZM175.703 84.1065C175.249 84.6967 174.741 85.1947 174.142 85.6005C174.541 85.0287 175.068 84.5491 175.703 84.1065ZM173.343 76.7472C173.543 76.1754 173.742 75.5852 173.942 75.0134C174.269 74.0727 174.596 73.0952 174.941 72.1361C175.903 69.5907 177.101 66.6765 178.971 64.1865C179.715 63.209 180.659 62.3421 181.567 61.4936L181.84 61.2539C181.967 61.1247 182.203 61.0325 182.475 61.0325C182.584 61.0325 182.62 61.0325 182.657 61.0325C182.711 61.0879 182.802 61.4383 182.802 61.8256C182.729 66.1232 178.299 71.3983 176.411 73.4825C175.903 74.0543 175.376 74.5892 174.868 75.1425C174.378 75.6774 173.87 76.2123 173.398 76.7287L173.343 76.7472ZM162.269 77.6694C162.269 77.6694 162.25 77.8169 162.232 77.8354C161.016 78.7207 159.763 79.606 158.583 80.436C159.11 79.0896 160.653 77.6694 161.815 77.5034C161.96 77.5034 162.105 77.5587 162.269 77.6694Z" fill="white"/>
</svg>
